# MagicaVoxel @ Ephtracy

# group
g title

# material
mtllib title.mtl
usemtl palette

# normals
vn -1 0 0
vn 1 0 0
vn 0 0 1
vn 0 0 -1
vn 0 -1 0
vn 0 1 0

# texcoords
vt 0.841797 0.5
vt 0.845703 0.5
vt 0.865234 0.5
vt 0.927734 0.5
vt 0.958984 0.5
vt 0.994141 0.5

# verts
v -6 0 3
v -6 0 1
v -6 0 -7
v -6 0 -9
v -6 2 3
v -6 2 1
v -6 2 -7
v -6 2 -9
v -4 0 1
v -4 0 -7
v -4 0 -9
v -4 0 -11
v -4 2 1
v -4 2 -7
v -4 2 -9
v -4 2 -11
v 1 0 1
v 1 0 -3
v 1 0 -5
v 1 0 -7
v 1 0 -9
v 1 2 1
v 1 2 -3
v 1 2 -5
v 1 2 -7
v 1 2 -9
v 3 0 3
v 3 0 1
v 3 0 -3
v 3 0 -5
v 3 0 -9
v 3 0 -11
v 3 2 3
v 3 2 1
v 3 2 -3
v 3 2 -5
v 3 2 -9
v 3 2 -11
v 9 0 1
v 9 0 -1
v 9 0 -2
v 9 0 -3
v 9 0 -5
v 9 0 -9
v 9 1 1
v 9 1 -1
v 9 1 -2
v 9 1 -3
v 9 2 1
v 9 2 -1
v 9 2 -2
v 9 2 -3
v 9 2 -5
v 9 2 -9
v 12 0 -7
v 12 0 -11
v 12 2 -7
v 12 2 -11
v 16 0 3
v 16 0 -5
v 16 1 3
v 16 1 -5
v 16 2 3
v 16 2 -5
v 18 0 -5
v 18 0 -7
v 18 1 -5
v 18 2 -5
v 18 2 -7
v 20 0 -7
v 20 0 -9
v 20 2 -7
v 20 2 -9
v 23 0 3
v 23 0 1
v 23 0 -7
v 23 0 -9
v 23 2 3
v 23 2 1
v 23 2 -7
v 23 2 -9
v 25 0 1
v 25 0 -7
v 25 0 -9
v 25 0 -11
v 25 2 1
v 25 2 -7
v 25 2 -9
v 25 2 -11
v -2 0 1
v -2 0 -11
v -2 2 1
v -2 2 -11
v 0 0 3
v 0 0 1
v 0 2 3
v 0 2 1
v 3 0 1
v 3 0 -3
v 3 0 -5
v 3 0 -7
v 3 0 -8
v 3 0 -9
v 3 2 1
v 3 2 -3
v 3 2 -5
v 3 2 -7
v 3 2 -8
v 3 2 -9
v 9 0 3
v 9 0 1
v 9 0 -3
v 9 0 -5
v 9 0 -9
v 9 0 -11
v 9 1 3
v 9 1 1
v 9 1 -3
v 9 2 3
v 9 2 1
v 9 2 -3
v 9 2 -5
v 9 2 -9
v 9 2 -11
v 11 0 1
v 11 0 -1
v 11 0 -2
v 11 0 -3
v 11 0 -5
v 11 0 -9
v 11 1 1
v 11 1 -1
v 11 1 -2
v 11 1 -3
v 11 2 1
v 11 2 -1
v 11 2 -2
v 11 2 -3
v 11 2 -5
v 11 2 -9
v 14 0 -7
v 14 0 -9
v 14 2 -7
v 14 2 -9
v 18 0 3
v 18 0 -5
v 18 1 3
v 18 1 -5
v 18 2 3
v 18 2 -5
v 20 0 -5
v 20 0 -6
v 20 0 -7
v 20 2 -5
v 20 2 -6
v 20 2 -7
v 22 0 -7
v 22 0 -11
v 22 2 -7
v 22 2 -11
v 27 0 1
v 27 0 -5
v 27 0 -6
v 27 0 -11
v 27 1 -5
v 27 1 -6
v 27 2 1
v 27 2 -11
v 29 0 3
v 29 0 1
v 29 2 3
v 29 2 1
v -6 0 3
v -6 2 3
v 0 0 3
v 0 2 3
v 3 0 3
v 3 2 3
v 6 0 3
v 6 1 3
v 6 2 3
v 9 0 3
v 9 1 3
v 9 2 3
v 16 0 3
v 16 1 3
v 16 2 3
v 18 0 3
v 18 1 3
v 18 2 3
v 23 0 3
v 23 2 3
v 24 0 3
v 24 2 3
v 26 0 3
v 26 2 3
v 29 0 3
v 29 2 3
v 1 0 1
v 1 2 1
v 3 0 1
v 3 2 1
v 9 0 1
v 9 1 1
v 9 2 1
v 11 0 1
v 11 1 1
v 11 2 1
v 3 0 -3
v 3 2 -3
v 5 0 -3
v 5 1 -3
v 5 2 -3
v 6 0 -3
v 6 1 -3
v 6 2 -3
v 7 0 -3
v 7 1 -3
v 8 1 -3
v 8 2 -3
v 9 0 -3
v 9 1 -3
v 9 2 -3
v 1 0 -5
v 1 2 -5
v 3 0 -5
v 3 2 -5
v 9 0 -5
v 9 2 -5
v 11 0 -5
v 11 2 -5
v 18 0 -5
v 18 1 -5
v 18 2 -5
v 20 0 -5
v 20 2 -5
v -6 0 -7
v -6 2 -7
v -4 0 -7
v -4 2 -7
v 12 0 -7
v 12 2 -7
v 14 0 -7
v 14 2 -7
v 20 0 -7
v 20 2 -7
v 22 0 -7
v 22 2 -7
v 23 0 -7
v 23 2 -7
v 25 0 -7
v 25 2 -7
v 3 0 -9
v 3 2 -9
v 9 0 -9
v 9 2 -9
v 14 0 -9
v 14 2 -9
v 20 0 -9
v 20 2 -9
v -6 0 1
v -6 2 1
v -4 0 1
v -4 2 1
v -2 0 1
v -2 2 1
v 0 0 1
v 0 2 1
v 3 0 1
v 3 2 1
v 6 0 1
v 6 1 1
v 6 2 1
v 9 0 1
v 9 1 1
v 9 2 1
v 23 0 1
v 23 2 1
v 24 0 1
v 24 2 1
v 25 0 1
v 25 2 1
v 27 0 1
v 27 2 1
v 29 0 1
v 29 2 1
v 1 0 -3
v 1 2 -3
v 3 0 -3
v 3 2 -3
v 9 0 -3
v 9 1 -3
v 9 2 -3
v 11 0 -3
v 11 1 -3
v 11 2 -3
v 3 0 -5
v 3 2 -5
v 5 0 -5
v 5 1 -5
v 5 2 -5
v 6 0 -5
v 6 1 -5
v 6 2 -5
v 7 0 -5
v 7 2 -5
v 9 0 -5
v 9 2 -5
v 16 0 -5
v 16 1 -5
v 16 2 -5
v 18 0 -5
v 18 1 -5
v 18 2 -5
v 18 0 -7
v 18 2 -7
v 19 0 -7
v 19 2 -7
v 20 0 -7
v 20 2 -7
v -6 0 -9
v -6 2 -9
v -4 0 -9
v -4 2 -9
v 1 0 -9
v 1 2 -9
v 2 0 -9
v 2 2 -9
v 3 0 -9
v 3 2 -9
v 9 0 -9
v 9 2 -9
v 11 0 -9
v 11 2 -9
v 23 0 -9
v 23 2 -9
v 25 0 -9
v 25 2 -9
v -4 0 -11
v -4 2 -11
v -2 0 -11
v -2 2 -11
v 3 0 -11
v 3 2 -11
v 9 0 -11
v 9 2 -11
v 12 0 -11
v 12 2 -11
v 22 0 -11
v 22 2 -11
v 25 0 -11
v 25 2 -11
v 27 0 -11
v 27 2 -11
v -6 0 3
v 0 0 3
v 3 0 3
v 6 0 3
v 9 0 3
v 16 0 3
v 18 0 3
v 23 0 3
v 24 0 3
v 26 0 3
v 29 0 3
v 25 0 2
v 26 0 2
v -6 0 1
v -4 0 1
v -2 0 1
v 0 0 1
v 1 0 1
v 3 0 1
v 6 0 1
v 9 0 1
v 11 0 1
v 23 0 1
v 24 0 1
v 25 0 1
v 27 0 1
v 29 0 1
v 9 0 -1
v 11 0 -1
v 9 0 -2
v 11 0 -2
v 1 0 -3
v 3 0 -3
v 5 0 -3
v 6 0 -3
v 7 0 -3
v 9 0 -3
v 11 0 -3
v 1 0 -5
v 3 0 -5
v 5 0 -5
v 6 0 -5
v 7 0 -5
v 9 0 -5
v 11 0 -5
v 16 0 -5
v 18 0 -5
v 20 0 -5
v 26 0 -5
v 27 0 -5
v 19 0 -6
v 20 0 -6
v 26 0 -6
v 27 0 -6
v -6 0 -7
v -4 0 -7
v 1 0 -7
v 3 0 -7
v 12 0 -7
v 14 0 -7
v 18 0 -7
v 19 0 -7
v 20 0 -7
v 22 0 -7
v 23 0 -7
v 25 0 -7
v 2 0 -8
v 3 0 -8
v -6 0 -9
v -4 0 -9
v 1 0 -9
v 2 0 -9
v 3 0 -9
v 9 0 -9
v 11 0 -9
v 14 0 -9
v 20 0 -9
v 23 0 -9
v 25 0 -9
v -4 0 -11
v -2 0 -11
v 3 0 -11
v 9 0 -11
v 12 0 -11
v 22 0 -11
v 25 0 -11
v 27 0 -11
v -6 2 3
v 0 2 3
v 3 2 3
v 6 2 3
v 9 2 3
v 16 2 3
v 18 2 3
v 23 2 3
v 24 2 3
v 26 2 3
v 29 2 3
v 25 2 2
v 26 2 2
v -6 2 1
v -4 2 1
v -2 2 1
v 0 2 1
v 1 2 1
v 3 2 1
v 6 2 1
v 9 2 1
v 11 2 1
v 23 2 1
v 24 2 1
v 25 2 1
v 27 2 1
v 29 2 1
v 9 2 -1
v 11 2 -1
v 9 2 -2
v 11 2 -2
v 1 2 -3
v 3 2 -3
v 5 2 -3
v 6 2 -3
v 8 2 -3
v 9 2 -3
v 11 2 -3
v 7 2 -4
v 8 2 -4
v 1 2 -5
v 3 2 -5
v 5 2 -5
v 6 2 -5
v 7 2 -5
v 9 2 -5
v 11 2 -5
v 16 2 -5
v 18 2 -5
v 20 2 -5
v 19 2 -6
v 20 2 -6
v -6 2 -7
v -4 2 -7
v 1 2 -7
v 3 2 -7
v 12 2 -7
v 14 2 -7
v 18 2 -7
v 19 2 -7
v 20 2 -7
v 22 2 -7
v 23 2 -7
v 25 2 -7
v 2 2 -8
v 3 2 -8
v -6 2 -9
v -4 2 -9
v 1 2 -9
v 2 2 -9
v 3 2 -9
v 9 2 -9
v 11 2 -9
v 14 2 -9
v 20 2 -9
v 23 2 -9
v 25 2 -9
v -4 2 -11
v -2 2 -11
v 3 2 -11
v 9 2 -11
v 12 2 -11
v 22 2 -11
v 25 2 -11
v 27 2 -11

# faces
f 5/4/1 2/4/1 1/4/1
f 6/4/1 2/4/1 5/4/1
f 7/4/1 4/4/1 3/4/1
f 8/4/1 4/4/1 7/4/1
f 13/4/1 10/4/1 9/4/1
f 14/4/1 10/4/1 13/4/1
f 15/4/1 12/4/1 11/4/1
f 16/4/1 12/4/1 15/4/1
f 22/5/1 18/5/1 17/5/1
f 23/5/1 18/5/1 22/5/1
f 24/5/1 20/5/1 19/5/1
f 25/6/1 21/6/1 20/6/1
f 25/5/1 20/5/1 24/5/1
f 26/6/1 21/6/1 25/6/1
f 33/5/1 28/5/1 27/5/1
f 34/5/1 28/5/1 33/5/1
f 35/5/1 30/5/1 29/5/1
f 36/5/1 30/5/1 35/5/1
f 37/3/1 32/3/1 31/3/1
f 38/3/1 32/3/1 37/3/1
f 45/1/1 40/1/1 39/1/1
f 46/6/1 41/6/1 40/6/1
f 46/1/1 40/1/1 45/1/1
f 47/1/1 42/1/1 41/1/1
f 47/6/1 41/6/1 46/6/1
f 48/1/1 42/1/1 47/1/1
f 49/2/1 46/2/1 45/2/1
f 50/6/1 47/6/1 46/6/1
f 50/2/1 46/2/1 49/2/1
f 51/3/1 48/3/1 47/3/1
f 51/6/1 47/6/1 50/6/1
f 52/3/1 48/3/1 51/3/1
f 53/3/1 44/3/1 43/3/1
f 54/3/1 44/3/1 53/3/1
f 57/3/1 56/3/1 55/3/1
f 58/3/1 56/3/1 57/3/1
f 61/1/1 60/1/1 59/1/1
f 62/1/1 60/1/1 61/1/1
f 63/2/1 62/2/1 61/2/1
f 64/2/1 62/2/1 63/2/1
f 67/6/1 66/6/1 65/6/1
f 68/6/1 66/6/1 67/6/1
f 69/6/1 66/6/1 68/6/1
f 72/3/1 71/3/1 70/3/1
f 73/3/1 71/3/1 72/3/1
f 78/1/1 75/1/1 74/1/1
f 79/1/1 75/1/1 78/1/1
f 80/3/1 77/3/1 76/3/1
f 81/3/1 77/3/1 80/3/1
f 86/3/1 83/3/1 82/3/1
f 87/3/1 83/3/1 86/3/1
f 88/3/1 85/3/1 84/3/1
f 89/3/1 85/3/1 88/3/1
f 90/4/2 91/4/2 92/4/2
f 92/4/2 91/4/2 93/4/2
f 94/4/2 95/4/2 96/4/2
f 96/4/2 95/4/2 97/4/2
f 98/5/2 99/5/2 104/5/2
f 104/5/2 99/5/2 105/5/2
f 100/5/2 101/5/2 106/5/2
f 101/6/2 102/6/2 107/6/2
f 106/5/2 101/5/2 107/5/2
f 102/3/2 103/3/2 108/3/2
f 107/6/2 102/6/2 108/6/2
f 108/3/2 103/3/2 109/3/2
f 110/1/2 111/1/2 116/1/2
f 116/1/2 111/1/2 117/1/2
f 112/3/2 113/3/2 118/3/2
f 116/2/2 117/2/2 119/2/2
f 119/2/2 117/2/2 120/2/2
f 118/3/2 113/3/2 121/3/2
f 121/3/2 113/3/2 122/3/2
f 114/3/2 115/3/2 123/3/2
f 123/3/2 115/3/2 124/3/2
f 125/1/2 126/1/2 131/1/2
f 126/6/2 127/6/2 132/6/2
f 131/1/2 126/1/2 132/1/2
f 127/1/2 128/1/2 133/1/2
f 132/6/2 127/6/2 133/6/2
f 133/1/2 128/1/2 134/1/2
f 131/2/2 132/2/2 135/2/2
f 132/6/2 133/6/2 136/6/2
f 135/2/2 132/2/2 136/2/2
f 133/3/2 134/3/2 137/3/2
f 136/6/2 133/6/2 137/6/2
f 137/3/2 134/3/2 138/3/2
f 129/3/2 130/3/2 139/3/2
f 139/3/2 130/3/2 140/3/2
f 141/3/2 142/3/2 143/3/2
f 143/3/2 142/3/2 144/3/2
f 145/1/2 146/1/2 147/1/2
f 147/1/2 146/1/2 148/1/2
f 147/2/2 148/2/2 149/2/2
f 149/2/2 148/2/2 150/2/2
f 151/6/2 152/6/2 154/6/2
f 152/3/2 153/3/2 155/3/2
f 154/6/2 152/6/2 155/6/2
f 155/3/2 153/3/2 156/3/2
f 157/3/2 158/3/2 159/3/2
f 159/3/2 158/3/2 160/3/2
f 161/3/2 162/3/2 165/3/2
f 162/1/2 163/1/2 165/1/2
f 163/3/2 164/3/2 166/3/2
f 165/1/2 163/1/2 166/1/2
f 161/3/2 165/3/2 167/3/2
f 165/3/2 166/3/2 167/3/2
f 166/3/2 164/3/2 168/3/2
f 167/3/2 166/3/2 168/3/2
f 169/3/2 170/3/2 171/3/2
f 171/3/2 170/3/2 172/3/2
f 175/4/3 174/4/3 173/4/3
f 176/4/3 174/4/3 175/4/3
f 179/5/3 178/5/3 177/5/3
f 180/5/3 178/5/3 179/5/3
f 181/5/3 178/5/3 180/5/3
f 182/1/3 180/1/3 179/1/3
f 183/2/3 181/2/3 180/2/3
f 183/1/3 180/1/3 182/1/3
f 184/2/3 181/2/3 183/2/3
f 188/1/3 186/1/3 185/1/3
f 189/2/3 187/2/3 186/2/3
f 189/1/3 186/1/3 188/1/3
f 190/2/3 187/2/3 189/2/3
f 193/1/3 192/1/3 191/1/3
f 194/1/3 192/1/3 193/1/3
f 195/6/3 194/6/3 193/6/3
f 196/6/3 194/6/3 195/6/3
f 197/3/3 196/3/3 195/3/3
f 198/3/3 196/3/3 197/3/3
f 201/5/3 200/5/3 199/5/3
f 202/5/3 200/5/3 201/5/3
f 206/1/3 204/1/3 203/1/3
f 207/2/3 205/2/3 204/2/3
f 207/1/3 204/1/3 206/1/3
f 208/2/3 205/2/3 207/2/3
f 211/5/3 210/5/3 209/5/3
f 212/5/3 210/5/3 211/5/3
f 213/5/3 210/5/3 212/5/3
f 214/1/3 212/1/3 211/1/3
f 215/2/3 213/2/3 212/2/3
f 215/1/3 212/1/3 214/1/3
f 216/2/3 213/2/3 215/2/3
f 217/6/3 215/6/3 214/6/3
f 217/6/3 216/6/3 215/6/3
f 218/6/3 216/6/3 217/6/3
f 219/3/3 218/3/3 217/3/3
f 219/6/3 216/6/3 218/6/3
f 220/6/3 216/6/3 219/6/3
f 221/3/3 219/3/3 217/3/3
f 221/3/3 220/3/3 219/3/3
f 222/3/3 220/3/3 221/3/3
f 223/3/3 220/3/3 222/3/3
f 226/5/3 225/5/3 224/5/3
f 227/5/3 225/5/3 226/5/3
f 230/3/3 229/3/3 228/3/3
f 231/3/3 229/3/3 230/3/3
f 235/6/3 233/6/3 232/6/3
f 235/6/3 234/6/3 233/6/3
f 236/6/3 234/6/3 235/6/3
f 239/4/3 238/4/3 237/4/3
f 240/4/3 238/4/3 239/4/3
f 243/3/3 242/3/3 241/3/3
f 244/3/3 242/3/3 243/3/3
f 247/3/3 246/3/3 245/3/3
f 248/3/3 246/3/3 247/3/3
f 251/3/3 250/3/3 249/3/3
f 252/3/3 250/3/3 251/3/3
f 255/3/3 254/3/3 253/3/3
f 256/3/3 254/3/3 255/3/3
f 259/3/3 258/3/3 257/3/3
f 260/3/3 258/3/3 259/3/3
f 261/4/4 262/4/4 263/4/4
f 263/4/4 262/4/4 264/4/4
f 265/4/4 266/4/4 267/4/4
f 267/4/4 266/4/4 268/4/4
f 269/5/4 270/5/4 271/5/4
f 271/5/4 270/5/4 272/5/4
f 272/5/4 270/5/4 273/5/4
f 271/1/4 272/1/4 274/1/4
f 272/2/4 273/2/4 275/2/4
f 274/1/4 272/1/4 275/1/4
f 275/2/4 273/2/4 276/2/4
f 277/1/4 278/1/4 279/1/4
f 279/1/4 278/1/4 280/1/4
f 279/6/4 280/6/4 281/6/4
f 281/6/4 280/6/4 282/6/4
f 283/3/4 284/3/4 285/3/4
f 285/3/4 284/3/4 286/3/4
f 287/5/4 288/5/4 289/5/4
f 289/5/4 288/5/4 290/5/4
f 291/1/4 292/1/4 294/1/4
f 292/3/4 293/3/4 295/3/4
f 294/1/4 292/1/4 295/1/4
f 295/3/4 293/3/4 296/3/4
f 297/5/4 298/5/4 299/5/4
f 299/5/4 298/5/4 300/5/4
f 300/5/4 298/5/4 301/5/4
f 299/1/4 300/1/4 302/1/4
f 300/2/4 301/2/4 303/2/4
f 302/1/4 300/1/4 303/1/4
f 303/2/4 301/2/4 304/2/4
f 302/6/4 303/6/4 305/6/4
f 303/6/4 304/6/4 305/6/4
f 305/6/4 304/6/4 306/6/4
f 305/3/4 306/3/4 307/3/4
f 307/3/4 306/3/4 308/3/4
f 309/1/4 310/1/4 312/1/4
f 310/2/4 311/2/4 313/2/4
f 312/1/4 310/1/4 313/1/4
f 313/2/4 311/2/4 314/2/4
f 315/6/4 316/6/4 317/6/4
f 317/6/4 316/6/4 318/6/4
f 317/3/4 318/3/4 319/3/4
f 319/3/4 318/3/4 320/3/4
f 321/4/4 322/4/4 323/4/4
f 323/4/4 322/4/4 324/4/4
f 325/6/4 326/6/4 327/6/4
f 327/6/4 326/6/4 328/6/4
f 327/3/4 328/3/4 329/3/4
f 329/3/4 328/3/4 330/3/4
f 331/3/4 332/3/4 333/3/4
f 333/3/4 332/3/4 334/3/4
f 335/3/4 336/3/4 337/3/4
f 337/3/4 336/3/4 338/3/4
f 339/4/4 340/4/4 341/4/4
f 341/4/4 340/4/4 342/4/4
f 343/3/4 344/3/4 345/3/4
f 345/3/4 344/3/4 346/3/4
f 347/3/4 348/3/4 349/3/4
f 349/3/4 348/3/4 350/3/4
f 351/3/4 352/3/4 353/3/4
f 353/3/4 352/3/4 354/3/4
f 366/6/5 364/6/5 363/6/5
f 367/3/5 365/3/5 364/3/5
f 367/6/5 364/6/5 366/6/5
f 368/4/5 356/4/5 355/4/5
f 369/4/5 356/4/5 368/4/5
f 370/4/5 356/4/5 369/4/5
f 371/4/5 356/4/5 370/4/5
f 373/5/5 358/5/5 357/5/5
f 374/1/5 359/1/5 358/1/5
f 374/5/5 358/5/5 373/5/5
f 375/1/5 359/1/5 374/1/5
f 377/1/5 363/1/5 362/1/5
f 378/6/5 366/6/5 363/6/5
f 378/1/5 363/1/5 377/1/5
f 379/3/5 367/3/5 366/3/5
f 379/6/5 366/6/5 378/6/5
f 380/3/5 365/3/5 367/3/5
f 380/3/5 367/3/5 379/3/5
f 381/3/5 365/3/5 380/3/5
f 382/1/5 376/1/5 375/1/5
f 383/1/5 376/1/5 382/1/5
f 384/6/5 383/6/5 382/6/5
f 385/6/5 383/6/5 384/6/5
f 386/5/5 373/5/5 372/5/5
f 387/5/5 373/5/5 386/5/5
f 391/1/5 385/1/5 384/1/5
f 392/1/5 385/1/5 391/1/5
f 394/5/5 388/5/5 387/5/5
f 395/1/5 389/1/5 388/1/5
f 395/5/5 388/5/5 394/5/5
f 396/6/5 390/6/5 389/6/5
f 396/1/5 389/1/5 395/1/5
f 397/3/5 391/3/5 390/3/5
f 397/6/5 390/6/5 396/6/5
f 398/3/5 391/3/5 397/3/5
f 400/1/5 361/1/5 360/1/5
f 401/1/5 361/1/5 400/1/5
f 403/3/5 380/3/5 379/3/5
f 404/3/5 380/3/5 403/3/5
f 405/6/5 402/6/5 401/6/5
f 406/6/5 402/6/5 405/6/5
f 407/1/5 404/1/5 403/1/5
f 407/3/5 403/3/5 379/3/5
f 408/1/5 404/1/5 407/1/5
f 410/4/5 370/4/5 369/4/5
f 411/5/5 394/5/5 393/5/5
f 412/5/5 394/5/5 411/5/5
f 415/6/5 405/6/5 401/6/5
f 416/3/5 406/3/5 405/3/5
f 416/6/5 405/6/5 415/6/5
f 417/3/5 406/3/5 416/3/5
f 420/3/5 407/3/5 379/3/5
f 420/3/5 408/3/5 407/3/5
f 421/6/5 412/6/5 411/6/5
f 422/6/5 412/6/5 421/6/5
f 423/4/5 410/4/5 409/4/5
f 424/4/5 370/4/5 410/4/5
f 424/4/5 410/4/5 423/4/5
f 425/6/5 421/6/5 411/6/5
f 426/3/5 422/3/5 421/3/5
f 426/6/5 421/6/5 425/6/5
f 427/3/5 422/3/5 426/3/5
f 428/3/5 399/3/5 398/3/5
f 429/3/5 399/3/5 428/3/5
f 430/3/5 414/3/5 413/3/5
f 431/3/5 418/3/5 417/3/5
f 432/3/5 420/3/5 419/3/5
f 433/3/5 408/3/5 420/3/5
f 433/3/5 420/3/5 432/3/5
f 434/4/5 370/4/5 424/4/5
f 435/4/5 370/4/5 434/4/5
f 436/3/5 428/3/5 427/3/5
f 437/3/5 428/3/5 436/3/5
f 438/3/5 430/3/5 413/3/5
f 438/3/5 431/3/5 430/3/5
f 439/3/5 418/3/5 431/3/5
f 439/3/5 431/3/5 438/3/5
f 440/3/5 408/3/5 433/3/5
f 441/3/5 408/3/5 440/3/5
f 450/6/6 451/6/6 453/6/6
f 451/3/6 452/3/6 454/3/6
f 453/6/6 451/6/6 454/6/6
f 442/4/6 443/4/6 455/4/6
f 455/4/6 443/4/6 456/4/6
f 456/4/6 443/4/6 457/4/6
f 457/4/6 443/4/6 458/4/6
f 444/5/6 445/5/6 460/5/6
f 445/2/6 446/2/6 461/2/6
f 460/5/6 445/5/6 461/5/6
f 461/2/6 446/2/6 462/2/6
f 449/1/6 450/1/6 464/1/6
f 450/6/6 453/6/6 465/6/6
f 464/1/6 450/1/6 465/1/6
f 453/3/6 454/3/6 466/3/6
f 465/6/6 453/6/6 466/6/6
f 454/3/6 452/3/6 467/3/6
f 466/3/6 454/3/6 467/3/6
f 467/3/6 452/3/6 468/3/6
f 462/2/6 463/2/6 469/2/6
f 469/2/6 463/2/6 470/2/6
f 469/6/6 470/6/6 471/6/6
f 471/6/6 470/6/6 472/6/6
f 459/5/6 460/5/6 473/5/6
f 473/5/6 460/5/6 474/5/6
f 471/3/6 472/3/6 478/3/6
f 478/3/6 472/3/6 479/3/6
f 476/6/6 477/6/6 480/6/6
f 477/3/6 478/3/6 481/3/6
f 480/6/6 477/6/6 481/6/6
f 474/5/6 475/5/6 483/5/6
f 475/2/6 476/2/6 484/2/6
f 483/5/6 475/5/6 484/5/6
f 476/6/6 480/6/6 485/6/6
f 484/2/6 476/2/6 485/2/6
f 480/3/6 481/3/6 486/3/6
f 485/6/6 480/6/6 486/6/6
f 481/3/6 478/3/6 487/3/6
f 486/3/6 481/3/6 487/3/6
f 447/2/6 448/2/6 489/2/6
f 489/2/6 448/2/6 490/2/6
f 490/6/6 491/6/6 492/6/6
f 492/6/6 491/6/6 493/6/6
f 456/4/6 457/4/6 495/4/6
f 482/5/6 483/5/6 496/5/6
f 496/5/6 483/5/6 497/5/6
f 490/6/6 492/6/6 500/6/6
f 492/3/6 493/3/6 501/3/6
f 500/6/6 492/6/6 501/6/6
f 501/3/6 493/3/6 502/3/6
f 466/3/6 467/3/6 505/3/6
f 496/6/6 497/6/6 506/6/6
f 506/6/6 497/6/6 507/6/6
f 494/4/6 495/4/6 508/4/6
f 495/4/6 457/4/6 509/4/6
f 508/4/6 495/4/6 509/4/6
f 496/6/6 506/6/6 510/6/6
f 506/3/6 507/3/6 511/3/6
f 510/6/6 506/6/6 511/6/6
f 511/3/6 507/3/6 512/3/6
f 487/3/6 488/3/6 513/3/6
f 513/3/6 488/3/6 514/3/6
f 498/3/6 499/3/6 515/3/6
f 502/3/6 503/3/6 516/3/6
f 504/3/6 505/3/6 517/3/6
f 505/3/6 467/3/6 518/3/6
f 517/3/6 505/3/6 518/3/6
f 509/4/6 457/4/6 519/4/6
f 519/4/6 457/4/6 520/4/6
f 512/3/6 513/3/6 521/3/6
f 521/3/6 513/3/6 522/3/6
f 498/3/6 515/3/6 523/3/6
f 515/3/6 516/3/6 523/3/6
f 516/3/6 503/3/6 524/3/6
f 523/3/6 516/3/6 524/3/6
f 518/3/6 467/3/6 525/3/6
f 525/3/6 467/3/6 526/3/6
