# MagicaVoxel @ Ephtracy

# group
g Mousquet

# material
mtllib Mousquet.mtl
usemtl palette

# normals
vn -1 0 0
vn 1 0 0
vn 0 0 1
vn 0 0 -1
vn 0 -1 0
vn 0 1 0

# texcoords
vt 0.396484 0.5
vt 0.982422 0.5

# verts
v -4 1 7
v -4 1 4
v -4 1 -19
v -4 2 7
v -4 2 4
v -4 2 -19
v -3 0 7
v -3 0 4
v -3 0 3
v -3 0 -18
v -3 1 17
v -3 1 9
v -3 1 8
v -3 1 7
v -3 1 4
v -3 1 3
v -3 1 -18
v -3 1 -19
v -3 1 -20
v -3 2 17
v -3 2 9
v -3 2 8
v -3 2 7
v -3 2 4
v -3 2 3
v -3 2 -18
v -3 2 -19
v -3 2 -20
v -3 3 7
v -3 3 4
v -3 3 3
v -3 3 -18
v -2 0 16
v -2 0 9
v -2 0 4
v -2 0 3
v -2 0 -18
v -2 0 -19
v -2 1 20
v -2 1 17
v -2 1 16
v -2 1 9
v -2 1 8
v -2 1 4
v -2 1 3
v -2 1 -18
v -2 1 -19
v -2 2 20
v -2 2 17
v -2 2 16
v -2 2 9
v -2 2 8
v -2 2 4
v -2 2 3
v -2 2 -18
v -2 2 -19
v -2 3 16
v -2 3 9
v -2 3 4
v -2 3 3
v -2 3 -18
v -2 3 -19
v -1 0 19
v -1 0 16
v -1 0 9
v -1 0 7
v -1 1 19
v -1 1 16
v -1 1 9
v -1 1 7
v -1 2 19
v -1 2 16
v -1 2 9
v -1 2 7
v -1 3 19
v -1 3 16
v -1 3 9
v -1 3 7
v -1 0 2
v -1 0 -19
v -1 1 2
v -1 1 -0
v -1 1 -19
v -1 2 2
v -1 2 -0
v -1 2 -19
v -1 3 2
v -1 3 -19
v 0 0 3
v 0 0 2
v 0 1 3
v 0 1 2
v 0 1 -0
v 0 1 -20
v 0 2 3
v 0 2 2
v 0 2 -0
v 0 2 -20
v 0 3 3
v 0 3 2
v 1 0 6
v 1 0 3
v 1 1 6
v 1 1 3
v 1 2 6
v 1 2 3
v 1 3 6
v 1 3 3
v 2 0 12
v 2 0 6
v 2 1 12
v 2 1 8
v 2 1 6
v 2 1 5
v 2 1 2
v 2 2 12
v 2 2 8
v 2 2 6
v 2 2 5
v 2 2 2
v 2 3 12
v 2 3 6
v 3 0 15
v 3 0 12
v 3 1 15
v 3 1 12
v 3 1 8
v 3 1 7
v 3 1 5
v 3 2 15
v 3 2 12
v 3 2 8
v 3 2 7
v 3 2 5
v 3 3 15
v 3 3 12
v 4 0 19
v 4 0 15
v 4 1 20
v 4 1 19
v 4 1 15
v 4 1 12
v 4 1 8
v 4 1 7
v 4 2 20
v 4 2 19
v 4 2 15
v 4 2 12
v 4 2 8
v 4 2 7
v 4 3 19
v 4 3 15
v 5 1 19
v 5 1 15
v 5 2 19
v 5 2 15
v -2 1 20
v -2 2 20
v 4 1 20
v 4 2 20
v -1 0 19
v -1 1 19
v -1 2 19
v -1 3 19
v 4 0 19
v 4 1 19
v 4 2 19
v 4 3 19
v 5 1 19
v 5 2 19
v -3 1 17
v -3 2 17
v -2 1 17
v -2 2 17
v -2 0 16
v -2 1 16
v -2 2 16
v -2 3 16
v -1 0 16
v -1 1 16
v -1 2 16
v -1 3 16
v -3 1 8
v -3 2 8
v -2 1 8
v -2 2 8
v 3 1 8
v 3 2 8
v 4 1 8
v 4 2 8
v -4 1 7
v -4 2 7
v -3 0 7
v -3 1 7
v -3 2 7
v -3 3 7
v -1 0 7
v -1 1 7
v -1 2 7
v -1 3 7
v -3 0 3
v -3 1 3
v -3 2 3
v -3 3 3
v -2 0 3
v -2 1 3
v -2 2 3
v -2 3 3
v 3 0 15
v 3 1 15
v 3 2 15
v 3 3 15
v 4 0 15
v 4 1 15
v 4 2 15
v 4 3 15
v 5 1 15
v 5 2 15
v 2 0 12
v 2 1 12
v 2 2 12
v 2 3 12
v 3 0 12
v 3 1 12
v 3 2 12
v 3 3 12
v 4 1 12
v 4 2 12
v -3 1 9
v -3 2 9
v -2 0 9
v -2 1 9
v -2 2 9
v -2 3 9
v -1 0 9
v -1 1 9
v -1 2 9
v -1 3 9
v 3 1 7
v 3 2 7
v 4 1 7
v 4 2 7
v 1 0 6
v 1 1 6
v 1 2 6
v 1 3 6
v 2 0 6
v 2 1 6
v 2 2 6
v 2 3 6
v 2 1 5
v 2 2 5
v 3 1 5
v 3 2 5
v -3 0 4
v -3 1 4
v -3 2 4
v -3 3 4
v -2 0 4
v -2 1 4
v -2 2 4
v -2 3 4
v 0 0 3
v 0 1 3
v 0 2 3
v 0 3 3
v 1 0 3
v 1 1 3
v 1 2 3
v 1 3 3
v -1 0 2
v -1 1 2
v -1 2 2
v -1 3 2
v 0 0 2
v 0 1 2
v 0 2 2
v 0 3 2
v 2 1 2
v 2 2 2
v -3 0 -18
v -3 1 -18
v -3 2 -18
v -3 3 -18
v -2 0 -18
v -2 1 -18
v -2 2 -18
v -2 3 -18
v -4 1 -19
v -4 2 -19
v -3 1 -19
v -3 2 -19
v -2 0 -19
v -2 1 -19
v -2 2 -19
v -2 3 -19
v -1 0 -19
v -1 1 -19
v -1 2 -19
v -1 3 -19
v -3 1 -20
v -3 2 -20
v -1 1 -20
v -1 2 -20
v 0 1 -20
v 0 2 -20
v -1 0 19
v 4 0 19
v -2 0 16
v -1 0 16
v 3 0 15
v 4 0 15
v 2 0 12
v 3 0 12
v -2 0 9
v -1 0 9
v 0 0 8
v 1 0 8
v -3 0 7
v -1 0 7
v 1 0 6
v 2 0 6
v -1 0 5
v 0 0 5
v -3 0 4
v -2 0 4
v -3 0 3
v -2 0 3
v 0 0 3
v 1 0 3
v -1 0 2
v 0 0 2
v -3 0 -18
v -2 0 -18
v -2 0 -19
v -1 0 -19
v -2 1 20
v 4 1 20
v -1 1 19
v 4 1 19
v 5 1 19
v -3 1 17
v -2 1 17
v -2 1 16
v -1 1 16
v 3 1 15
v 4 1 15
v 5 1 15
v 2 1 12
v 3 1 12
v 4 1 12
v -3 1 9
v -2 1 9
v -1 1 9
v -3 1 8
v -2 1 8
v 2 1 8
v 3 1 8
v 4 1 8
v -4 1 7
v -3 1 7
v -1 1 7
v 3 1 7
v 4 1 7
v 1 1 6
v 2 1 6
v 2 1 5
v 3 1 5
v -4 1 4
v -3 1 4
v -2 1 4
v -3 1 3
v -2 1 3
v 0 1 3
v 1 1 3
v -1 1 2
v 0 1 2
v 2 1 2
v -1 1 -0
v 0 1 -0
v -3 1 -18
v -2 1 -18
v -4 1 -19
v -3 1 -19
v -2 1 -19
v -1 1 -19
v -3 1 -20
v -1 1 -20
v 0 1 -20
v -2 2 20
v 4 2 20
v -1 2 19
v 4 2 19
v 5 2 19
v -3 2 17
v -2 2 17
v -2 2 16
v -1 2 16
v 3 2 15
v 4 2 15
v 5 2 15
v 2 2 12
v 3 2 12
v 4 2 12
v -3 2 9
v -2 2 9
v -1 2 9
v -3 2 8
v -2 2 8
v 2 2 8
v 3 2 8
v 4 2 8
v -4 2 7
v -3 2 7
v -1 2 7
v 3 2 7
v 4 2 7
v 1 2 6
v 2 2 6
v 2 2 5
v 3 2 5
v -4 2 4
v -3 2 4
v -2 2 4
v -3 2 3
v -2 2 3
v 0 2 3
v 1 2 3
v -1 2 2
v 0 2 2
v 2 2 2
v -1 2 -0
v 0 2 -0
v -3 2 -18
v -2 2 -18
v -4 2 -19
v -3 2 -19
v -2 2 -19
v -1 2 -19
v -3 2 -20
v -1 2 -20
v 0 2 -20
v -1 3 19
v 4 3 19
v -2 3 16
v -1 3 16
v 3 3 15
v 4 3 15
v 2 3 12
v 3 3 12
v -2 3 9
v -1 3 9
v 0 3 8
v 1 3 8
v -3 3 7
v -1 3 7
v 1 3 6
v 2 3 6
v -1 3 5
v 0 3 5
v -3 3 4
v -2 3 4
v -3 3 3
v -2 3 3
v 0 3 3
v 1 3 3
v -1 3 2
v 0 3 2
v -3 3 -18
v -2 3 -18
v -2 3 -19
v -1 3 -19

# faces
f 4/1/1 2/1/1 1/1/1
f 5/2/1 3/2/1 2/2/1
f 5/1/1 2/1/1 4/1/1
f 6/2/1 3/2/1 5/2/1
f 14/1/1 8/1/1 7/1/1
f 15/1/1 8/1/1 14/1/1
f 16/2/1 10/2/1 9/2/1
f 17/2/1 10/2/1 16/2/1
f 20/1/1 12/1/1 11/1/1
f 21/1/1 12/1/1 20/1/1
f 22/1/1 14/1/1 13/1/1
f 23/1/1 14/1/1 22/1/1
f 27/2/1 19/2/1 18/2/1
f 28/2/1 19/2/1 27/2/1
f 29/1/1 24/1/1 23/1/1
f 30/1/1 24/1/1 29/1/1
f 31/2/1 26/2/1 25/2/1
f 32/2/1 26/2/1 31/2/1
f 41/1/1 34/1/1 33/1/1
f 42/1/1 34/1/1 41/1/1
f 44/1/1 36/1/1 35/1/1
f 45/1/1 36/1/1 44/1/1
f 46/1/1 38/1/1 37/1/1
f 47/1/1 38/1/1 46/1/1
f 48/1/1 40/1/1 39/1/1
f 49/1/1 40/1/1 48/1/1
f 51/1/1 43/1/1 42/1/1
f 52/1/1 43/1/1 51/1/1
f 57/1/1 51/1/1 50/1/1
f 58/1/1 51/1/1 57/1/1
f 59/1/1 54/1/1 53/1/1
f 60/1/1 54/1/1 59/1/1
f 61/1/1 56/1/1 55/1/1
f 62/1/1 56/1/1 61/1/1
f 67/1/1 64/1/1 63/1/1
f 68/1/1 64/1/1 67/1/1
f 69/1/1 66/1/1 65/1/1
f 70/1/1 66/1/1 69/1/1
f 75/1/1 72/1/1 71/1/1
f 76/1/1 72/1/1 75/1/1
f 77/1/1 74/1/1 73/1/1
f 78/1/1 74/1/1 77/1/1
f 79/1/2 80/1/2 81/1/2
f 81/1/2 80/1/2 82/1/2
f 82/1/2 80/1/2 83/1/2
f 84/1/2 85/1/2 87/1/2
f 85/1/2 86/1/2 87/1/2
f 87/1/2 86/1/2 88/1/2
f 89/2/2 90/2/2 91/2/2
f 91/2/2 90/2/2 92/2/2
f 92/2/2 93/2/2 96/2/2
f 93/1/2 94/1/2 97/1/2
f 96/2/2 93/2/2 97/2/2
f 97/1/2 94/1/2 98/1/2
f 95/2/2 96/2/2 99/2/2
f 99/2/2 96/2/2 100/2/2
f 101/2/2 102/2/2 103/2/2
f 103/2/2 102/2/2 104/2/2
f 105/2/2 106/2/2 107/2/2
f 107/2/2 106/2/2 108/2/2
f 109/1/2 110/1/2 111/1/2
f 111/1/2 110/1/2 112/1/2
f 112/1/2 110/1/2 113/1/2
f 114/2/2 115/2/2 119/2/2
f 119/2/2 115/2/2 120/2/2
f 117/1/2 118/1/2 121/1/2
f 116/1/2 117/1/2 121/1/2
f 121/1/2 118/1/2 122/1/2
f 123/1/2 124/1/2 125/1/2
f 125/1/2 124/1/2 126/1/2
f 126/1/2 127/1/2 131/1/2
f 131/1/2 127/1/2 132/1/2
f 128/2/2 129/2/2 133/2/2
f 133/2/2 129/2/2 134/2/2
f 130/1/2 131/1/2 135/1/2
f 135/1/2 131/1/2 136/1/2
f 137/1/2 138/1/2 140/1/2
f 140/1/2 138/1/2 141/1/2
f 139/1/2 140/1/2 145/1/2
f 145/1/2 140/1/2 146/1/2
f 141/1/2 142/1/2 147/1/2
f 147/1/2 142/1/2 148/1/2
f 143/2/2 144/2/2 149/2/2
f 149/2/2 144/2/2 150/2/2
f 146/1/2 147/1/2 151/1/2
f 151/1/2 147/1/2 152/1/2
f 153/1/2 154/1/2 155/1/2
f 155/1/2 154/1/2 156/1/2
f 159/1/3 158/1/3 157/1/3
f 160/1/3 158/1/3 159/1/3
f 165/1/3 162/1/3 161/1/3
f 166/1/3 162/1/3 165/1/3
f 167/1/3 164/1/3 163/1/3
f 168/1/3 164/1/3 167/1/3
f 169/1/3 167/1/3 166/1/3
f 170/1/3 167/1/3 169/1/3
f 173/1/3 172/1/3 171/1/3
f 174/1/3 172/1/3 173/1/3
f 179/1/3 176/1/3 175/1/3
f 180/1/3 176/1/3 179/1/3
f 181/1/3 178/1/3 177/1/3
f 182/1/3 178/1/3 181/1/3
f 185/1/3 184/1/3 183/1/3
f 186/1/3 184/1/3 185/1/3
f 189/2/3 188/2/3 187/2/3
f 190/2/3 188/2/3 189/2/3
f 194/1/3 192/1/3 191/1/3
f 195/1/3 192/1/3 194/1/3
f 197/1/3 194/1/3 193/1/3
f 198/1/3 194/1/3 197/1/3
f 199/1/3 196/1/3 195/1/3
f 200/1/3 196/1/3 199/1/3
f 205/2/3 202/2/3 201/2/3
f 206/2/3 202/2/3 205/2/3
f 207/2/3 204/2/3 203/2/3
f 208/2/3 204/2/3 207/2/3
f 209/1/4 210/1/4 213/1/4
f 213/1/4 210/1/4 214/1/4
f 211/1/4 212/1/4 215/1/4
f 215/1/4 212/1/4 216/1/4
f 214/1/4 215/1/4 217/1/4
f 217/1/4 215/1/4 218/1/4
f 219/1/4 220/1/4 223/1/4
f 223/1/4 220/1/4 224/1/4
f 221/1/4 222/1/4 225/1/4
f 225/1/4 222/1/4 226/1/4
f 224/1/4 225/1/4 227/1/4
f 227/1/4 225/1/4 228/1/4
f 229/1/4 230/1/4 232/1/4
f 232/1/4 230/1/4 233/1/4
f 231/1/4 232/1/4 235/1/4
f 235/1/4 232/1/4 236/1/4
f 233/1/4 234/1/4 237/1/4
f 237/1/4 234/1/4 238/1/4
f 239/2/4 240/2/4 241/2/4
f 241/2/4 240/2/4 242/2/4
f 243/1/4 244/1/4 247/1/4
f 247/1/4 244/1/4 248/1/4
f 245/1/4 246/1/4 249/1/4
f 249/1/4 246/1/4 250/1/4
f 251/2/4 252/2/4 253/2/4
f 253/2/4 252/2/4 254/2/4
f 255/1/4 256/1/4 259/1/4
f 259/1/4 256/1/4 260/1/4
f 257/1/4 258/1/4 261/1/4
f 261/1/4 258/1/4 262/1/4
f 263/2/4 264/2/4 267/2/4
f 267/2/4 264/2/4 268/2/4
f 265/2/4 266/2/4 269/2/4
f 269/2/4 266/2/4 270/2/4
f 271/2/4 272/2/4 275/2/4
f 275/2/4 272/2/4 276/2/4
f 273/2/4 274/2/4 277/2/4
f 277/2/4 274/2/4 278/2/4
f 276/2/4 277/2/4 279/2/4
f 279/2/4 277/2/4 280/2/4
f 281/2/4 282/2/4 285/2/4
f 285/2/4 282/2/4 286/2/4
f 283/2/4 284/2/4 287/2/4
f 287/2/4 284/2/4 288/2/4
f 289/2/4 290/2/4 291/2/4
f 291/2/4 290/2/4 292/2/4
f 293/1/4 294/1/4 297/1/4
f 297/1/4 294/1/4 298/1/4
f 295/1/4 296/1/4 299/1/4
f 299/1/4 296/1/4 300/1/4
f 301/2/4 302/2/4 303/2/4
f 303/2/4 302/2/4 304/2/4
f 303/1/4 304/1/4 305/1/4
f 305/1/4 304/1/4 306/1/4
f 310/1/5 308/1/5 307/1/5
f 311/1/5 308/1/5 310/1/5
f 311/1/5 310/1/5 309/1/5
f 312/1/5 308/1/5 311/1/5
f 313/1/5 311/1/5 309/1/5
f 314/1/5 311/1/5 313/1/5
f 315/1/5 313/1/5 309/1/5
f 316/1/5 313/1/5 315/1/5
f 317/1/5 313/1/5 316/1/5
f 318/1/5 313/1/5 317/1/5
f 320/1/5 317/1/5 316/1/5
f 321/1/5 313/1/5 318/1/5
f 321/2/5 318/2/5 317/2/5
f 322/1/5 313/1/5 321/1/5
f 323/1/5 320/1/5 319/1/5
f 323/1/5 317/1/5 320/1/5
f 324/2/5 321/2/5 317/2/5
f 324/1/5 317/1/5 323/1/5
f 325/1/5 323/1/5 319/1/5
f 326/1/5 323/1/5 325/1/5
f 328/1/5 323/1/5 326/1/5
f 329/2/5 321/2/5 324/2/5
f 329/2/5 324/2/5 323/2/5
f 330/2/5 321/2/5 329/2/5
f 331/1/5 323/1/5 328/1/5
f 331/2/5 329/2/5 323/2/5
f 332/2/5 329/2/5 331/2/5
f 333/2/5 328/2/5 327/2/5
f 334/1/5 331/1/5 328/1/5
f 334/2/5 328/2/5 333/2/5
f 335/1/5 331/1/5 334/1/5
f 336/1/5 331/1/5 335/1/5
f 339/1/5 338/1/5 337/1/5
f 340/1/5 338/1/5 339/1/5
f 343/1/5 339/1/5 337/1/5
f 344/1/5 339/1/5 343/1/5
f 344/1/5 343/1/5 342/1/5
f 345/1/5 339/1/5 344/1/5
f 347/1/5 341/1/5 340/1/5
f 348/1/5 341/1/5 347/1/5
f 350/1/5 347/1/5 346/1/5
f 351/1/5 347/1/5 350/1/5
f 352/1/5 344/1/5 342/1/5
f 353/1/5 344/1/5 352/1/5
f 356/1/5 354/1/5 353/1/5
f 357/1/5 350/1/5 349/1/5
f 358/1/5 350/1/5 357/1/5
f 361/1/5 356/1/5 355/1/5
f 362/1/5 354/1/5 356/1/5
f 362/1/5 356/1/5 361/1/5
f 363/2/5 359/2/5 358/2/5
f 363/2/5 358/2/5 357/2/5
f 364/2/5 359/2/5 363/2/5
f 366/2/5 363/2/5 357/2/5
f 367/2/5 363/2/5 366/2/5
f 367/2/5 366/2/5 365/2/5
f 368/2/5 363/2/5 367/2/5
f 369/1/5 361/1/5 360/1/5
f 370/1/5 361/1/5 369/1/5
f 372/2/5 370/2/5 369/2/5
f 372/1/5 371/1/5 370/1/5
f 373/1/5 371/1/5 372/1/5
f 375/2/5 367/2/5 365/2/5
f 377/2/5 375/2/5 374/2/5
f 378/2/5 367/2/5 375/2/5
f 378/2/5 375/2/5 377/2/5
f 379/2/5 377/2/5 376/2/5
f 380/2/5 377/2/5 379/2/5
f 381/2/5 372/2/5 369/2/5
f 383/2/5 381/2/5 369/2/5
f 383/2/5 382/2/5 381/2/5
f 384/2/5 382/2/5 383/2/5
f 385/2/5 382/2/5 384/2/5
f 386/1/5 380/1/5 379/1/5
f 387/2/5 385/2/5 384/2/5
f 387/2/5 386/2/5 385/2/5
f 388/1/5 380/1/5 386/1/5
f 388/2/5 386/2/5 387/2/5
f 389/1/5 380/1/5 388/1/5
f 390/1/6 391/1/6 392/1/6
f 392/1/6 391/1/6 393/1/6
f 390/1/6 392/1/6 396/1/6
f 396/1/6 392/1/6 397/1/6
f 395/1/6 396/1/6 397/1/6
f 397/1/6 392/1/6 398/1/6
f 393/1/6 394/1/6 400/1/6
f 400/1/6 394/1/6 401/1/6
f 399/1/6 400/1/6 403/1/6
f 403/1/6 400/1/6 404/1/6
f 395/1/6 397/1/6 405/1/6
f 405/1/6 397/1/6 406/1/6
f 406/1/6 407/1/6 409/1/6
f 402/1/6 403/1/6 410/1/6
f 410/1/6 403/1/6 411/1/6
f 408/1/6 409/1/6 414/1/6
f 409/1/6 407/1/6 415/1/6
f 414/1/6 409/1/6 415/1/6
f 411/2/6 412/2/6 416/2/6
f 410/2/6 411/2/6 416/2/6
f 416/2/6 412/2/6 417/2/6
f 410/2/6 416/2/6 419/2/6
f 419/2/6 416/2/6 420/2/6
f 418/2/6 419/2/6 420/2/6
f 420/2/6 416/2/6 421/2/6
f 413/1/6 414/1/6 422/1/6
f 422/1/6 414/1/6 423/1/6
f 422/2/6 423/2/6 425/2/6
f 423/1/6 424/1/6 425/1/6
f 425/1/6 424/1/6 426/1/6
f 418/2/6 420/2/6 428/2/6
f 427/2/6 428/2/6 430/2/6
f 428/2/6 420/2/6 431/2/6
f 430/2/6 428/2/6 431/2/6
f 429/2/6 430/2/6 432/2/6
f 432/2/6 430/2/6 433/2/6
f 422/2/6 425/2/6 434/2/6
f 422/2/6 434/2/6 436/2/6
f 434/2/6 435/2/6 436/2/6
f 436/2/6 435/2/6 437/2/6
f 437/2/6 435/2/6 438/2/6
f 432/1/6 433/1/6 439/1/6
f 437/2/6 438/2/6 440/2/6
f 438/2/6 439/2/6 440/2/6
f 439/1/6 433/1/6 441/1/6
f 440/2/6 439/2/6 441/2/6
f 441/1/6 433/1/6 442/1/6
f 443/1/6 444/1/6 446/1/6
f 446/1/6 444/1/6 447/1/6
f 445/1/6 446/1/6 447/1/6
f 447/1/6 444/1/6 448/1/6
f 445/1/6 447/1/6 449/1/6
f 449/1/6 447/1/6 450/1/6
f 445/1/6 449/1/6 451/1/6
f 451/1/6 449/1/6 452/1/6
f 452/1/6 449/1/6 453/1/6
f 453/1/6 449/1/6 454/1/6
f 452/1/6 453/1/6 456/1/6
f 454/1/6 449/1/6 457/1/6
f 453/2/6 454/2/6 457/2/6
f 457/1/6 449/1/6 458/1/6
f 455/1/6 456/1/6 459/1/6
f 456/1/6 453/1/6 459/1/6
f 453/2/6 457/2/6 460/2/6
f 459/1/6 453/1/6 460/1/6
f 455/1/6 459/1/6 461/1/6
f 461/1/6 459/1/6 462/1/6
f 462/1/6 459/1/6 464/1/6
f 460/2/6 457/2/6 465/2/6
f 459/2/6 460/2/6 465/2/6
f 465/2/6 457/2/6 466/2/6
f 464/1/6 459/1/6 467/1/6
f 459/2/6 465/2/6 467/2/6
f 467/2/6 465/2/6 468/2/6
f 463/2/6 464/2/6 469/2/6
f 464/1/6 467/1/6 470/1/6
f 469/2/6 464/2/6 470/2/6
f 470/1/6 467/1/6 471/1/6
f 471/1/6 467/1/6 472/1/6
