# MagicaVoxel @ Ephtracy

# group
g Sword

# material
mtllib Sword.mtl
usemtl palette

# normals
vn -1 0 0
vn 1 0 0
vn 0 0 1
vn 0 0 -1
vn 0 -1 0
vn 0 1 0

# texcoords
vt 0.841797 0.5
vt 0.958984 0.5
vt 0.994141 0.5

# verts
v 16 5 6
v 16 5 5
v 16 7 6
v 16 7 5
v 17 4 6
v 17 4 5
v 17 5 8
v 17 5 7
v 17 5 6
v 17 5 5
v 17 5 4
v 17 5 3
v 17 7 8
v 17 7 7
v 17 7 6
v 17 7 5
v 17 7 4
v 17 7 3
v 17 8 6
v 17 8 5
v 18 4 7
v 18 4 6
v 18 4 5
v 18 4 4
v 18 5 7
v 18 5 6
v 18 5 5
v 18 5 4
v 18 7 7
v 18 7 6
v 18 7 5
v 18 7 4
v 18 8 7
v 18 8 6
v 18 8 5
v 18 8 4
v 18 9 6
v 18 9 5
v 19 5 6
v 19 5 5
v 19 7 6
v 19 7 5
v 19 9 6
v 19 9 5
v 19 24 6
v 19 24 5
v 17 5 6
v 17 5 5
v 17 7 6
v 17 7 5
v 18 5 8
v 18 5 7
v 18 5 4
v 18 5 3
v 18 7 8
v 18 7 7
v 18 7 4
v 18 7 3
v 19 4 7
v 19 4 6
v 19 4 5
v 19 4 4
v 19 5 7
v 19 5 6
v 19 5 5
v 19 5 4
v 19 7 7
v 19 7 6
v 19 7 5
v 19 7 4
v 19 8 7
v 19 8 6
v 19 8 5
v 19 8 4
v 20 4 6
v 20 4 5
v 20 8 6
v 20 8 5
v 20 24 6
v 20 24 5
v 17 5 8
v 17 7 8
v 18 5 8
v 18 7 8
v 18 4 7
v 18 5 7
v 18 7 7
v 18 8 7
v 19 4 7
v 19 5 7
v 19 7 7
v 19 8 7
v 16 5 6
v 16 7 6
v 17 4 6
v 17 5 6
v 17 7 6
v 17 8 6
v 18 4 6
v 18 5 6
v 18 7 6
v 18 8 6
v 18 9 6
v 19 4 6
v 19 5 6
v 19 7 6
v 19 8 6
v 19 9 6
v 19 24 6
v 20 4 6
v 20 8 6
v 20 24 6
v 17 5 4
v 17 7 4
v 18 5 4
v 18 7 4
v 17 5 7
v 17 7 7
v 18 5 7
v 18 7 7
v 16 5 5
v 16 7 5
v 17 4 5
v 17 5 5
v 17 7 5
v 17 8 5
v 18 4 5
v 18 5 5
v 18 7 5
v 18 8 5
v 18 9 5
v 19 4 5
v 19 5 5
v 19 7 5
v 19 8 5
v 19 9 5
v 19 24 5
v 20 4 5
v 20 8 5
v 20 24 5
v 18 4 4
v 18 5 4
v 18 7 4
v 18 8 4
v 19 4 4
v 19 5 4
v 19 7 4
v 19 8 4
v 17 5 3
v 17 7 3
v 18 5 3
v 18 7 3
v 18 4 7
v 19 4 7
v 17 4 6
v 18 4 6
v 19 4 6
v 20 4 6
v 17 4 5
v 18 4 5
v 19 4 5
v 20 4 5
v 18 4 4
v 19 4 4
v 17 5 8
v 18 5 8
v 17 5 7
v 18 5 7
v 16 5 6
v 17 5 6
v 16 5 5
v 17 5 5
v 17 5 4
v 18 5 4
v 17 5 3
v 18 5 3
v 18 7 7
v 19 7 7
v 17 7 6
v 18 7 6
v 19 7 6
v 17 7 5
v 18 7 5
v 19 7 5
v 18 7 4
v 19 7 4
v 18 5 7
v 19 5 7
v 17 5 6
v 18 5 6
v 19 5 6
v 17 5 5
v 18 5 5
v 19 5 5
v 18 5 4
v 19 5 4
v 17 7 8
v 18 7 8
v 17 7 7
v 18 7 7
v 16 7 6
v 17 7 6
v 16 7 5
v 17 7 5
v 17 7 4
v 18 7 4
v 17 7 3
v 18 7 3
v 18 8 7
v 19 8 7
v 17 8 6
v 18 8 6
v 19 8 6
v 17 8 5
v 18 8 5
v 19 8 5
v 18 8 4
v 19 8 4
v 18 9 6
v 19 9 6
v 18 9 5
v 19 9 5
v 19 24 6
v 20 24 6
v 19 24 5
v 20 24 5

# faces
f 3/1/1 2/1/1 1/1/1
f 4/1/1 2/1/1 3/1/1
f 9/1/1 6/1/1 5/1/1
f 10/1/1 6/1/1 9/1/1
f 13/1/1 8/1/1 7/1/1
f 14/1/1 8/1/1 13/1/1
f 17/1/1 12/1/1 11/1/1
f 18/1/1 12/1/1 17/1/1
f 19/1/1 16/1/1 15/1/1
f 20/1/1 16/1/1 19/1/1
f 25/1/1 22/1/1 21/1/1
f 26/1/1 22/1/1 25/1/1
f 27/1/1 24/1/1 23/1/1
f 28/1/1 24/1/1 27/1/1
f 33/1/1 30/1/1 29/1/1
f 34/1/1 30/1/1 33/1/1
f 35/1/1 32/1/1 31/1/1
f 36/1/1 32/1/1 35/1/1
f 37/1/1 35/1/1 34/1/1
f 38/1/1 35/1/1 37/1/1
f 41/3/1 40/3/1 39/3/1
f 42/3/1 40/3/1 41/3/1
f 45/2/1 44/2/1 43/2/1
f 46/2/1 44/2/1 45/2/1
f 47/1/2 48/1/2 49/1/2
f 49/1/2 48/1/2 50/1/2
f 51/1/2 52/1/2 55/1/2
f 55/1/2 52/1/2 56/1/2
f 53/1/2 54/1/2 57/1/2
f 57/1/2 54/1/2 58/1/2
f 59/1/2 60/1/2 63/1/2
f 63/1/2 60/1/2 64/1/2
f 61/1/2 62/1/2 65/1/2
f 65/1/2 62/1/2 66/1/2
f 67/1/2 68/1/2 71/1/2
f 71/1/2 68/1/2 72/1/2
f 69/1/2 70/1/2 73/1/2
f 73/1/2 70/1/2 74/1/2
f 75/3/2 76/3/2 77/3/2
f 77/3/2 76/3/2 78/3/2
f 77/2/2 78/2/2 79/2/2
f 79/2/2 78/2/2 80/2/2
f 83/1/3 82/1/3 81/1/3
f 84/1/3 82/1/3 83/1/3
f 89/1/3 86/1/3 85/1/3
f 90/1/3 86/1/3 89/1/3
f 91/1/3 88/1/3 87/1/3
f 92/1/3 88/1/3 91/1/3
f 96/1/3 94/1/3 93/1/3
f 97/1/3 94/1/3 96/1/3
f 99/1/3 96/1/3 95/1/3
f 100/1/3 96/1/3 99/1/3
f 101/1/3 98/1/3 97/1/3
f 102/1/3 98/1/3 101/1/3
f 107/1/3 103/1/3 102/1/3
f 108/1/3 103/1/3 107/1/3
f 110/3/3 106/3/3 105/3/3
f 110/3/3 105/3/3 104/3/3
f 110/3/3 107/3/3 106/3/3
f 111/2/3 109/2/3 108/2/3
f 111/3/3 107/3/3 110/3/3
f 111/2/3 108/2/3 107/2/3
f 112/2/3 109/2/3 111/2/3
f 115/1/3 114/1/3 113/1/3
f 116/1/3 114/1/3 115/1/3
f 117/1/4 118/1/4 119/1/4
f 119/1/4 118/1/4 120/1/4
f 121/1/4 122/1/4 124/1/4
f 124/1/4 122/1/4 125/1/4
f 123/1/4 124/1/4 127/1/4
f 127/1/4 124/1/4 128/1/4
f 125/1/4 126/1/4 129/1/4
f 129/1/4 126/1/4 130/1/4
f 130/1/4 131/1/4 135/1/4
f 135/1/4 131/1/4 136/1/4
f 133/3/4 134/3/4 138/3/4
f 132/3/4 133/3/4 138/3/4
f 134/3/4 135/3/4 138/3/4
f 136/2/4 137/2/4 139/2/4
f 138/3/4 135/3/4 139/3/4
f 135/2/4 136/2/4 139/2/4
f 139/2/4 137/2/4 140/2/4
f 141/1/4 142/1/4 145/1/4
f 145/1/4 142/1/4 146/1/4
f 143/1/4 144/1/4 147/1/4
f 147/1/4 144/1/4 148/1/4
f 149/1/4 150/1/4 151/1/4
f 151/1/4 150/1/4 152/1/4
f 156/1/5 154/1/5 153/1/5
f 157/1/5 154/1/5 156/1/5
f 159/1/5 156/1/5 155/1/5
f 159/1/5 157/1/5 156/1/5
f 160/1/5 157/1/5 159/1/5
f 161/3/5 158/3/5 157/3/5
f 161/1/5 157/1/5 160/1/5
f 162/3/5 158/3/5 161/3/5
f 163/1/5 161/1/5 160/1/5
f 164/1/5 161/1/5 163/1/5
f 167/1/5 166/1/5 165/1/5
f 168/1/5 166/1/5 167/1/5
f 171/1/5 170/1/5 169/1/5
f 172/1/5 170/1/5 171/1/5
f 175/1/5 174/1/5 173/1/5
f 176/1/5 174/1/5 175/1/5
f 180/1/5 178/1/5 177/1/5
f 181/1/5 178/1/5 180/1/5
f 182/1/5 180/1/5 179/1/5
f 182/1/5 181/1/5 180/1/5
f 183/1/5 181/1/5 182/1/5
f 184/1/5 181/1/5 183/1/5
f 185/1/5 184/1/5 183/1/5
f 186/1/5 184/1/5 185/1/5
f 187/1/6 188/1/6 190/1/6
f 190/1/6 188/1/6 191/1/6
f 189/1/6 190/1/6 192/1/6
f 190/1/6 191/1/6 192/1/6
f 192/1/6 191/1/6 193/1/6
f 193/1/6 191/1/6 194/1/6
f 193/1/6 194/1/6 195/1/6
f 195/1/6 194/1/6 196/1/6
f 197/1/6 198/1/6 199/1/6
f 199/1/6 198/1/6 200/1/6
f 201/1/6 202/1/6 203/1/6
f 203/1/6 202/1/6 204/1/6
f 205/1/6 206/1/6 207/1/6
f 207/1/6 206/1/6 208/1/6
f 209/1/6 210/1/6 212/1/6
f 212/1/6 210/1/6 213/1/6
f 211/1/6 212/1/6 214/1/6
f 214/1/6 212/1/6 215/1/6
f 215/1/6 216/1/6 217/1/6
f 217/1/6 216/1/6 218/1/6
f 219/1/6 220/1/6 221/1/6
f 221/1/6 220/1/6 222/1/6
f 223/2/6 224/2/6 225/2/6
f 225/2/6 224/2/6 226/2/6
