# MagicaVoxel @ Ephtracy

# group
g Musket

# material
mtllib Musket.mtl
usemtl palette

# normals
vn -1 0 0
vn 1 0 0
vn 0 0 1
vn 0 0 -1
vn 0 -1 0
vn 0 1 0

# texcoords
vt 0.537109 0.5
vt 0.978516 0.5
vt 0.994141 0.5

# verts
v -13 19 0.5
v -13 19 -0.5
v -13 20 0.5
v -13 20 -0.5
v -12 18 0.5
v -12 18 -0.5
v -12 19 0.5
v -12 19 -0.5
v -1 17 0.5
v -1 17 -0.5
v -1 18 1.5
v -1 18 0.5
v -1 18 -0.5
v -1 18 -1.5
v -1 19 1.5
v -1 19 0.5
v -1 19 -0.5
v -1 19 -1.5
v 4 18 1.5
v 4 18 0.5
v 4 18 -0.5
v 4 18 -1.5
v 4 19 1.5
v 4 19 0.5
v 4 19 -0.5
v 4 19 -1.5
v 5 16 0.5
v 5 16 -0.5
v 5 17 0.5
v 5 17 -0.5
v 6 15 0.5
v 6 15 -0.5
v 6 16 0.5
v 6 16 -0.5
v 7 16 0.5
v 7 16 -0.5
v 7 17 0.5
v 7 17 -0.5
v 8 18 1.5
v 8 18 0.5
v 8 18 -0.5
v 8 18 -1.5
v 8 19 1.5
v 8 19 0.5
v 8 19 -0.5
v 8 19 -1.5
v 9 16 0.5
v 9 16 -0.5
v 9 17 0.5
v 9 17 -0.5
v 10 17 1.5
v 10 17 0.5
v 10 17 -0.5
v 10 17 -1.5
v 10 18 1.5
v 10 18 0.5
v 10 18 -0.5
v 10 18 -1.5
v 11 15 0.5
v 11 15 -0.5
v 11 16 0.5
v 11 16 -0.5
v 12 16 1.5
v 12 16 0.5
v 12 16 -0.5
v 12 16 -1.5
v 12 17 1.5
v 12 17 0.5
v 12 17 -0.5
v 12 17 -1.5
v 3 18 1.5
v 3 18 0.5
v 3 18 -0.5
v 3 18 -1.5
v 3 19 1.5
v 3 19 0.5
v 3 19 -0.5
v 3 19 -1.5
v 6 16 0.5
v 6 16 -0.5
v 6 17 0.5
v 6 17 -0.5
v 7 15 0.5
v 7 15 -0.5
v 7 16 0.5
v 7 16 -0.5
v 7 18 1.5
v 7 18 0.5
v 7 18 -0.5
v 7 18 -1.5
v 7 19 1.5
v 7 19 0.5
v 7 19 -0.5
v 7 19 -1.5
v 8 16 0.5
v 8 16 -0.5
v 8 17 0.5
v 8 17 -0.5
v 11 18 1.5
v 11 18 0.5
v 11 18 -0.5
v 11 18 -1.5
v 11 19 1.5
v 11 19 0.5
v 11 19 -0.5
v 11 19 -1.5
v 13 17 1.5
v 13 17 0.5
v 13 17 -0.5
v 13 17 -1.5
v 13 18 1.5
v 13 18 0.5
v 13 18 -0.5
v 13 18 -1.5
v 13 19 0.5
v 13 19 -0.5
v 13 20 0.5
v 13 20 -0.5
v 14 18 0.5
v 14 18 -0.5
v 14 19 0.5
v 14 19 -0.5
v 15 16 1.5
v 15 16 0.5
v 15 16 -0.5
v 15 16 -1.5
v 15 17 1.5
v 15 17 0.5
v 15 17 -0.5
v 15 17 -1.5
v 16 15 0.5
v 16 15 -0.5
v 16 18 0.5
v 16 18 -0.5
v -1 18 1.5
v -1 19 1.5
v 3 18 1.5
v 3 19 1.5
v 4 18 1.5
v 4 19 1.5
v 7 18 1.5
v 7 19 1.5
v 8 18 1.5
v 8 19 1.5
v 10 17 1.5
v 10 18 1.5
v 11 18 1.5
v 11 19 1.5
v 12 16 1.5
v 12 17 1.5
v 13 17 1.5
v 13 18 1.5
v 15 16 1.5
v 15 17 1.5
v -13 19 0.5
v -13 20 0.5
v -12 18 0.5
v -12 19 0.5
v -11 18 0.5
v -11 19 0.5
v -8 18 0.5
v -8 19 0.5
v -7 18 0.5
v -7 19 0.5
v -4 18 0.5
v -4 19 0.5
v -3 18 0.5
v -3 19 0.5
v -1 17 0.5
v -1 18 0.5
v -1 19 0.5
v 3 18 0.5
v 3 19 0.5
v 4 18 0.5
v 4 19 0.5
v 5 16 0.5
v 5 17 0.5
v 6 15 0.5
v 6 16 0.5
v 6 17 0.5
v 7 15 0.5
v 7 16 0.5
v 7 17 0.5
v 7 18 0.5
v 7 19 0.5
v 8 16 0.5
v 8 17 0.5
v 8 18 0.5
v 8 19 0.5
v 9 16 0.5
v 9 17 0.5
v 10 17 0.5
v 10 18 0.5
v 11 15 0.5
v 11 16 0.5
v 11 18 0.5
v 11 19 0.5
v 12 16 0.5
v 12 17 0.5
v 12 18 0.5
v 12 19 0.5
v 13 17 0.5
v 13 18 0.5
v 13 19 0.5
v 13 20 0.5
v 14 18 0.5
v 14 19 0.5
v 15 16 0.5
v 15 17 0.5
v 16 15 0.5
v 16 18 0.5
v -13 19 -0.5
v -13 20 -0.5
v -12 18 -0.5
v -12 19 -0.5
v -11 18 -0.5
v -11 19 -0.5
v -8 18 -0.5
v -8 19 -0.5
v -7 18 -0.5
v -7 19 -0.5
v -4 18 -0.5
v -4 19 -0.5
v -3 18 -0.5
v -3 19 -0.5
v -1 17 -0.5
v -1 18 -0.5
v -1 19 -0.5
v 3 18 -0.5
v 3 19 -0.5
v 4 18 -0.5
v 4 19 -0.5
v 5 16 -0.5
v 5 17 -0.5
v 6 15 -0.5
v 6 16 -0.5
v 6 17 -0.5
v 7 15 -0.5
v 7 16 -0.5
v 7 17 -0.5
v 7 18 -0.5
v 7 19 -0.5
v 8 16 -0.5
v 8 17 -0.5
v 8 18 -0.5
v 8 19 -0.5
v 9 16 -0.5
v 9 17 -0.5
v 10 17 -0.5
v 10 18 -0.5
v 11 15 -0.5
v 11 16 -0.5
v 11 18 -0.5
v 11 19 -0.5
v 12 16 -0.5
v 12 17 -0.5
v 12 18 -0.5
v 12 19 -0.5
v 13 17 -0.5
v 13 18 -0.5
v 13 19 -0.5
v 13 20 -0.5
v 14 18 -0.5
v 14 19 -0.5
v 15 16 -0.5
v 15 17 -0.5
v 16 15 -0.5
v 16 18 -0.5
v -1 18 -1.5
v -1 19 -1.5
v 3 18 -1.5
v 3 19 -1.5
v 4 18 -1.5
v 4 19 -1.5
v 7 18 -1.5
v 7 19 -1.5
v 8 18 -1.5
v 8 19 -1.5
v 10 17 -1.5
v 10 18 -1.5
v 11 18 -1.5
v 11 19 -1.5
v 12 16 -1.5
v 12 17 -1.5
v 13 17 -1.5
v 13 18 -1.5
v 15 16 -1.5
v 15 17 -1.5
v 6 15 0.5
v 7 15 0.5
v 11 15 0.5
v 16 15 0.5
v 6 15 -0.5
v 7 15 -0.5
v 11 15 -0.5
v 16 15 -0.5
v 12 16 1.5
v 15 16 1.5
v 5 16 0.5
v 6 16 0.5
v 7 16 0.5
v 8 16 0.5
v 9 16 0.5
v 11 16 0.5
v 12 16 0.5
v 15 16 0.5
v 5 16 -0.5
v 6 16 -0.5
v 7 16 -0.5
v 8 16 -0.5
v 9 16 -0.5
v 11 16 -0.5
v 12 16 -0.5
v 15 16 -0.5
v 12 16 -1.5
v 15 16 -1.5
v 10 17 1.5
v 12 17 1.5
v -1 17 0.5
v 5 17 0.5
v 6 17 0.5
v 7 17 0.5
v 8 17 0.5
v 9 17 0.5
v 10 17 0.5
v 12 17 0.5
v -1 17 -0.5
v 5 17 -0.5
v 6 17 -0.5
v 7 17 -0.5
v 8 17 -0.5
v 9 17 -0.5
v 10 17 -0.5
v 12 17 -0.5
v 10 17 -1.5
v 12 17 -1.5
v -1 18 1.5
v 3 18 1.5
v 4 18 1.5
v 7 18 1.5
v 8 18 1.5
v 10 18 1.5
v -12 18 0.5
v -11 18 0.5
v -8 18 0.5
v -7 18 0.5
v -4 18 0.5
v -3 18 0.5
v -1 18 0.5
v 3 18 0.5
v 4 18 0.5
v 7 18 0.5
v 8 18 0.5
v 10 18 0.5
v -12 18 -0.5
v -11 18 -0.5
v -8 18 -0.5
v -7 18 -0.5
v -4 18 -0.5
v -3 18 -0.5
v -1 18 -0.5
v 3 18 -0.5
v 4 18 -0.5
v 7 18 -0.5
v 8 18 -0.5
v 10 18 -0.5
v -1 18 -1.5
v 3 18 -1.5
v 4 18 -1.5
v 7 18 -1.5
v 8 18 -1.5
v 10 18 -1.5
v -13 19 0.5
v -12 19 0.5
v -13 19 -0.5
v -12 19 -0.5
v 6 16 0.5
v 7 16 0.5
v 6 16 -0.5
v 7 16 -0.5
v 13 17 1.5
v 15 17 1.5
v 13 17 0.5
v 15 17 0.5
v 13 17 -0.5
v 15 17 -0.5
v 13 17 -1.5
v 15 17 -1.5
v 11 18 1.5
v 13 18 1.5
v 11 18 0.5
v 12 18 0.5
v 13 18 0.5
v 14 18 0.5
v 16 18 0.5
v 11 18 -0.5
v 12 18 -0.5
v 13 18 -0.5
v 14 18 -0.5
v 16 18 -0.5
v 11 18 -1.5
v 13 18 -1.5
v -1 19 1.5
v 3 19 1.5
v 4 19 1.5
v 7 19 1.5
v 8 19 1.5
v 11 19 1.5
v -1 19 0.5
v 3 19 0.5
v 4 19 0.5
v 7 19 0.5
v 8 19 0.5
v 11 19 0.5
v 13 19 0.5
v 14 19 0.5
v -1 19 -0.5
v 3 19 -0.5
v 4 19 -0.5
v 7 19 -0.5
v 8 19 -0.5
v 11 19 -0.5
v 13 19 -0.5
v 14 19 -0.5
v -1 19 -1.5
v 3 19 -1.5
v 4 19 -1.5
v 7 19 -1.5
v 8 19 -1.5
v 11 19 -1.5
v -13 20 0.5
v 13 20 0.5
v -13 20 -0.5
v 13 20 -0.5

# faces
f 3/2/1 2/2/1 1/2/1
f 4/2/1 2/2/1 3/2/1
f 7/2/1 6/2/1 5/2/1
f 8/2/1 6/2/1 7/2/1
f 12/1/1 10/1/1 9/1/1
f 13/1/1 10/1/1 12/1/1
f 15/1/1 12/1/1 11/1/1
f 16/1/1 12/1/1 15/1/1
f 17/1/1 14/1/1 13/1/1
f 18/1/1 14/1/1 17/1/1
f 23/1/1 20/1/1 19/1/1
f 24/1/1 20/1/1 23/1/1
f 25/1/1 22/1/1 21/1/1
f 26/1/1 22/1/1 25/1/1
f 29/3/1 28/3/1 27/3/1
f 30/3/1 28/3/1 29/3/1
f 33/3/1 32/3/1 31/3/1
f 34/3/1 32/3/1 33/3/1
f 37/3/1 36/3/1 35/3/1
f 38/3/1 36/3/1 37/3/1
f 43/1/1 40/1/1 39/1/1
f 44/1/1 40/1/1 43/1/1
f 45/1/1 42/1/1 41/1/1
f 46/1/1 42/1/1 45/1/1
f 49/1/1 48/1/1 47/1/1
f 50/1/1 48/1/1 49/1/1
f 55/1/1 52/1/1 51/1/1
f 56/1/1 52/1/1 55/1/1
f 57/1/1 54/1/1 53/1/1
f 58/1/1 54/1/1 57/1/1
f 61/1/1 60/1/1 59/1/1
f 62/1/1 60/1/1 61/1/1
f 67/1/1 64/1/1 63/1/1
f 68/1/1 64/1/1 67/1/1
f 69/1/1 66/1/1 65/1/1
f 70/1/1 66/1/1 69/1/1
f 71/1/2 72/1/2 75/1/2
f 75/1/2 72/1/2 76/1/2
f 73/1/2 74/1/2 77/1/2
f 77/1/2 74/1/2 78/1/2
f 79/3/2 80/3/2 81/3/2
f 81/3/2 80/3/2 82/3/2
f 83/3/2 84/3/2 85/3/2
f 85/3/2 84/3/2 86/3/2
f 87/1/2 88/1/2 91/1/2
f 91/1/2 88/1/2 92/1/2
f 89/1/2 90/1/2 93/1/2
f 93/1/2 90/1/2 94/1/2
f 95/3/2 96/3/2 97/3/2
f 97/3/2 96/3/2 98/3/2
f 99/1/2 100/1/2 103/1/2
f 103/1/2 100/1/2 104/1/2
f 101/1/2 102/1/2 105/1/2
f 105/1/2 102/1/2 106/1/2
f 107/1/2 108/1/2 111/1/2
f 111/1/2 108/1/2 112/1/2
f 109/1/2 110/1/2 113/1/2
f 113/1/2 110/1/2 114/1/2
f 115/2/2 116/2/2 117/2/2
f 117/2/2 116/2/2 118/2/2
f 119/1/2 120/1/2 121/1/2
f 121/1/2 120/1/2 122/1/2
f 123/1/2 124/1/2 127/1/2
f 127/1/2 124/1/2 128/1/2
f 125/1/2 126/1/2 129/1/2
f 129/1/2 126/1/2 130/1/2
f 131/1/2 132/1/2 133/1/2
f 133/1/2 132/1/2 134/1/2
f 137/1/3 136/1/3 135/1/3
f 138/1/3 136/1/3 137/1/3
f 141/1/3 140/1/3 139/1/3
f 142/1/3 140/1/3 141/1/3
f 146/1/3 144/1/3 143/1/3
f 147/1/3 144/1/3 146/1/3
f 147/1/3 146/1/3 145/1/3
f 148/1/3 144/1/3 147/1/3
f 150/1/3 147/1/3 145/1/3
f 151/1/3 147/1/3 150/1/3
f 151/1/3 150/1/3 149/1/3
f 152/1/3 147/1/3 151/1/3
f 153/1/3 151/1/3 149/1/3
f 154/1/3 151/1/3 153/1/3
f 158/2/3 156/2/3 155/2/3
f 159/2/3 158/2/3 157/2/3
f 160/2/3 156/2/3 158/2/3
f 160/2/3 158/2/3 159/2/3
f 161/1/3 160/1/3 159/1/3
f 162/2/3 156/2/3 160/2/3
f 162/1/3 160/1/3 161/1/3
f 163/2/3 162/2/3 161/2/3
f 164/2/3 156/2/3 162/2/3
f 164/2/3 162/2/3 163/2/3
f 165/1/3 164/1/3 163/1/3
f 166/2/3 156/2/3 164/2/3
f 166/1/3 164/1/3 165/1/3
f 167/2/3 166/2/3 165/2/3
f 168/2/3 156/2/3 166/2/3
f 168/2/3 166/2/3 167/2/3
f 170/1/3 168/1/3 167/1/3
f 171/2/3 156/2/3 168/2/3
f 171/1/3 168/1/3 170/1/3
f 172/1/3 170/1/3 169/1/3
f 173/2/3 156/2/3 171/2/3
f 174/1/3 172/1/3 169/1/3
f 174/2/3 173/2/3 172/2/3
f 175/2/3 156/2/3 173/2/3
f 175/2/3 173/2/3 174/2/3
f 177/1/3 174/1/3 169/1/3
f 179/3/3 177/3/3 176/3/3
f 180/1/3 174/1/3 177/1/3
f 180/3/3 177/3/3 179/3/3
f 181/3/3 179/3/3 178/3/3
f 182/3/3 179/3/3 181/3/3
f 183/1/3 174/1/3 180/1/3
f 184/1/3 174/1/3 183/1/3
f 185/2/3 156/2/3 175/2/3
f 186/3/3 183/3/3 182/3/3
f 187/1/3 184/1/3 183/1/3
f 187/3/3 183/3/3 186/3/3
f 188/2/3 185/2/3 184/2/3
f 188/1/3 184/1/3 187/1/3
f 189/2/3 156/2/3 185/2/3
f 189/2/3 185/2/3 188/2/3
f 191/1/3 188/1/3 187/1/3
f 192/1/3 188/1/3 191/1/3
f 192/1/3 191/1/3 190/1/3
f 193/1/3 188/1/3 192/1/3
f 195/1/3 192/1/3 190/1/3
f 197/2/3 156/2/3 189/2/3
f 198/1/3 195/1/3 194/1/3
f 198/1/3 192/1/3 195/1/3
f 199/1/3 192/1/3 198/1/3
f 200/2/3 197/2/3 196/2/3
f 201/2/3 156/2/3 197/2/3
f 201/2/3 197/2/3 200/2/3
f 203/1/3 201/1/3 200/1/3
f 204/2/3 156/2/3 201/2/3
f 204/1/3 201/1/3 203/1/3
f 205/2/3 156/2/3 204/2/3
f 206/1/3 203/1/3 202/1/3
f 206/1/3 204/1/3 203/1/3
f 207/1/3 204/1/3 206/1/3
f 208/1/3 198/1/3 194/1/3
f 209/1/3 206/1/3 202/1/3
f 210/1/3 208/1/3 194/1/3
f 210/1/3 209/1/3 208/1/3
f 211/1/3 206/1/3 209/1/3
f 211/1/3 209/1/3 210/1/3
f 212/2/4 213/2/4 215/2/4
f 214/2/4 215/2/4 216/2/4
f 215/2/4 213/2/4 217/2/4
f 216/2/4 215/2/4 217/2/4
f 216/1/4 217/1/4 218/1/4
f 217/2/4 213/2/4 219/2/4
f 218/1/4 217/1/4 219/1/4
f 218/2/4 219/2/4 220/2/4
f 219/2/4 213/2/4 221/2/4
f 220/2/4 219/2/4 221/2/4
f 220/1/4 221/1/4 222/1/4
f 221/2/4 213/2/4 223/2/4
f 222/1/4 221/1/4 223/1/4
f 222/2/4 223/2/4 224/2/4
f 223/2/4 213/2/4 225/2/4
f 224/2/4 223/2/4 225/2/4
f 224/1/4 225/1/4 227/1/4
f 225/2/4 213/2/4 228/2/4
f 227/1/4 225/1/4 228/1/4
f 226/1/4 227/1/4 229/1/4
f 228/2/4 213/2/4 230/2/4
f 226/1/4 229/1/4 231/1/4
f 229/2/4 230/2/4 231/2/4
f 230/2/4 213/2/4 232/2/4
f 231/2/4 230/2/4 232/2/4
f 226/1/4 231/1/4 234/1/4
f 233/3/4 234/3/4 236/3/4
f 234/1/4 231/1/4 237/1/4
f 236/3/4 234/3/4 237/3/4
f 235/3/4 236/3/4 238/3/4
f 238/3/4 236/3/4 239/3/4
f 237/1/4 231/1/4 240/1/4
f 240/1/4 231/1/4 241/1/4
f 232/2/4 213/2/4 242/2/4
f 239/3/4 240/3/4 243/3/4
f 240/1/4 241/1/4 244/1/4
f 243/3/4 240/3/4 244/3/4
f 241/2/4 242/2/4 245/2/4
f 244/1/4 241/1/4 245/1/4
f 242/2/4 213/2/4 246/2/4
f 245/2/4 242/2/4 246/2/4
f 244/1/4 245/1/4 248/1/4
f 248/1/4 245/1/4 249/1/4
f 247/1/4 248/1/4 249/1/4
f 249/1/4 245/1/4 250/1/4
f 247/1/4 249/1/4 252/1/4
f 246/2/4 213/2/4 254/2/4
f 251/1/4 252/1/4 255/1/4
f 252/1/4 249/1/4 255/1/4
f 255/1/4 249/1/4 256/1/4
f 253/2/4 254/2/4 257/2/4
f 254/2/4 213/2/4 258/2/4
f 257/2/4 254/2/4 258/2/4
f 257/1/4 258/1/4 260/1/4
f 258/2/4 213/2/4 261/2/4
f 260/1/4 258/1/4 261/1/4
f 261/2/4 213/2/4 262/2/4
f 259/1/4 260/1/4 263/1/4
f 260/1/4 261/1/4 263/1/4
f 263/1/4 261/1/4 264/1/4
f 251/1/4 255/1/4 265/1/4
f 259/1/4 263/1/4 266/1/4
f 251/1/4 265/1/4 267/1/4
f 265/1/4 266/1/4 267/1/4
f 266/1/4 263/1/4 268/1/4
f 267/1/4 266/1/4 268/1/4
f 269/1/4 270/1/4 271/1/4
f 271/1/4 270/1/4 272/1/4
f 273/1/4 274/1/4 275/1/4
f 275/1/4 274/1/4 276/1/4
f 277/1/4 278/1/4 280/1/4
f 280/1/4 278/1/4 281/1/4
f 279/1/4 280/1/4 281/1/4
f 281/1/4 278/1/4 282/1/4
f 279/1/4 281/1/4 284/1/4
f 284/1/4 281/1/4 285/1/4
f 283/1/4 284/1/4 285/1/4
f 285/1/4 281/1/4 286/1/4
f 283/1/4 285/1/4 287/1/4
f 287/1/4 285/1/4 288/1/4
f 293/3/5 290/3/5 289/3/5
f 294/3/5 290/3/5 293/3/5
f 295/1/5 292/1/5 291/1/5
f 296/1/5 292/1/5 295/1/5
f 305/1/5 298/1/5 297/1/5
f 306/1/5 298/1/5 305/1/5
f 307/3/5 300/3/5 299/3/5
f 308/3/5 300/3/5 307/3/5
f 309/3/5 302/3/5 301/3/5
f 310/3/5 302/3/5 309/3/5
f 311/1/5 304/1/5 303/1/5
f 312/1/5 304/1/5 311/1/5
f 315/1/5 314/1/5 313/1/5
f 316/1/5 314/1/5 315/1/5
f 325/1/5 318/1/5 317/1/5
f 326/1/5 318/1/5 325/1/5
f 327/1/5 320/1/5 319/1/5
f 328/1/5 320/1/5 327/1/5
f 329/1/5 322/1/5 321/1/5
f 330/1/5 322/1/5 329/1/5
f 331/1/5 324/1/5 323/1/5
f 332/1/5 324/1/5 331/1/5
f 335/1/5 334/1/5 333/1/5
f 336/1/5 334/1/5 335/1/5
f 349/1/5 338/1/5 337/1/5
f 350/1/5 338/1/5 349/1/5
f 351/1/5 340/1/5 339/1/5
f 352/1/5 340/1/5 351/1/5
f 353/1/5 342/1/5 341/1/5
f 354/1/5 342/1/5 353/1/5
f 355/2/5 344/2/5 343/2/5
f 356/1/5 345/1/5 344/1/5
f 356/2/5 344/2/5 355/2/5
f 357/2/5 346/2/5 345/2/5
f 357/1/5 345/1/5 356/1/5
f 358/1/5 347/1/5 346/1/5
f 358/2/5 346/2/5 357/2/5
f 359/2/5 348/2/5 347/2/5
f 359/1/5 347/1/5 358/1/5
f 360/1/5 349/1/5 348/1/5
f 360/2/5 348/2/5 359/2/5
f 361/1/5 349/1/5 360/1/5
f 367/1/5 362/1/5 361/1/5
f 368/1/5 362/1/5 367/1/5
f 369/1/5 364/1/5 363/1/5
f 370/1/5 364/1/5 369/1/5
f 371/1/5 366/1/5 365/1/5
f 372/1/5 366/1/5 371/1/5
f 375/2/5 374/2/5 373/2/5
f 376/2/5 374/2/5 375/2/5
f 377/3/6 378/3/6 379/3/6
f 379/3/6 378/3/6 380/3/6
f 381/1/6 382/1/6 383/1/6
f 383/1/6 382/1/6 384/1/6
f 385/1/6 386/1/6 387/1/6
f 387/1/6 386/1/6 388/1/6
f 389/1/6 390/1/6 391/1/6
f 391/1/6 390/1/6 392/1/6
f 392/1/6 390/1/6 393/1/6
f 394/1/6 395/1/6 399/1/6
f 399/1/6 395/1/6 400/1/6
f 397/1/6 398/1/6 401/1/6
f 396/1/6 397/1/6 401/1/6
f 401/1/6 398/1/6 402/1/6
f 403/1/6 404/1/6 409/1/6
f 409/1/6 404/1/6 410/1/6
f 405/1/6 406/1/6 411/1/6
f 411/1/6 406/1/6 412/1/6
f 407/1/6 408/1/6 413/1/6
f 413/1/6 408/1/6 414/1/6
f 415/1/6 416/1/6 423/1/6
f 423/1/6 416/1/6 424/1/6
f 417/1/6 418/1/6 425/1/6
f 425/1/6 418/1/6 426/1/6
f 419/1/6 420/1/6 427/1/6
f 427/1/6 420/1/6 428/1/6
f 421/1/6 422/1/6 429/1/6
f 429/1/6 422/1/6 430/1/6
f 431/2/6 432/2/6 433/2/6
f 433/2/6 432/2/6 434/2/6
